<svg xmlns="http://www.w3.org/2000/svg" viewBox="0 0 920 520" font-family="system-ui, sans-serif" font-size="12">
  <defs>
    <style>
      .box { fill: #fff; stroke: #059669; stroke-width: 1.5; }
      .title { fill: #064e3b; font-weight: 600; font-size: 13px; }
      .muted { fill: #6b7280; font-size: 11px; }
      .line { stroke: #9ca3af; stroke-width: 1; fill: none; marker-end: url(#arrow); }
    </style>
    <marker id="arrow" markerWidth="8" markerHeight="8" refX="7" refY="3" orient="auto">
      <path d="M0,0 L8,3 L0,6 Z" fill="#9ca3af"/>
    </marker>
  </defs>
  <rect width="920" height="520" fill="#f9fafb"/>
  <text x="460" y="28" text-anchor="middle" class="title" font-size="16">Cooking Recipe  ER‚õ	</text>

  <rect class="box" x="40" y="60" width="140" height="56" rx="6"/>
  <text x="110" y="82" text-anchor="middle" class="title">profiles</text>
  <text x="110" y="98" text-anchor="middle" class="muted">auth.users 1:1</text>

  <rect class="box" x="240" y="60" width="140" height="56" rx="6"/>
  <text x="310" y="82" text-anchor="middle" class="title">families</text>
  <text x="310" y="98" text-anchor="middle" class="muted">owner_id</text>

  <rect class="box" x="440" y="60" width="160" height="56" rx="6"/>
  <text x="520" y="82" text-anchor="middle" class="title">family_members</text>
  <text x="520" y="98" text-anchor="middle" class="muted">family_id, user_id</text>

  <rect class="box" x="40" y="180" width="140" height="56" rx="6"/>
  <text x="110" y="202" text-anchor="middle" class="title">recipes</text>
  <text x="110" y="218" text-anchor="middle" class="muted">author_id</text>

  <rect class="box" x="240" y="160" width="120" height="48" rx="6"/>
  <text x="300" y="188" text-anchor="middle" class="title">categories</text>

  <rect class="box" x="240" y="230" width="120" height="48" rx="6"/>
  <text x="300" y="258" text-anchor="middle" class="title">ingredients</text>

  <rect class="box" x="400" y="180" width="150" height="48" rx="6"/>
  <text x="475" y="208" text-anchor="middle" class="title">recipe_categories</text>

  <rect class="box" x="580" y="160" width="150" height="56" rx="6"/>
  <text x="655" y="182" text-anchor="middle" class="title">recipe_ingredients</text>
  <text x="655" y="198" text-anchor="middle" class="muted">ingredient_id?</text>

  <rect class="box" x="580" y="240" width="160" height="48" rx="6"/>
  <text x="660" y="268" text-anchor="middle" class="title">recipe_instructions</text>

  <rect class="box" x="400" y="320" width="150" height="48" rx="6"/>
  <text x="475" y="348" text-anchor="middle" class="title">recipe_favorites</text>

  <rect class="box" x="40" y="320" width="200" height="48" rx="6" stroke-dasharray="4 2"/>
  <text x="140" y="342" text-anchor="middle" class="title">accessible_recipe_ids</text>
  <text x="140" y="358" text-anchor="middle" class="muted">view</text>

  <rect class="box" x="40" y="400" width="200" height="48" rx="6" stroke-dasharray="4 2"/>
  <text x="140" y="422" text-anchor="middle" class="title">recipe_summaries</text>
  <text x="140" y="438" text-anchor="middle" class="muted">view</text>

  <path class="line" d="M180 88 L240 88"/>
  <path class="line" d="M380 88 L440 88"/>
  <path class="line" d="M110 116 L110 180"/>
  <path class="line" d="M180 208 L400 204"/>
  <path class="line" d="M180 208 L580 188"/>
  <path class="line" d="M180 220 L580 264"/>
  <path class="line" d="M360 184 L400 196"/>
  <path class="line" d="M360 254 L655 188"/>
  <path class="line" d="M180 236 L475 320"/>
  <path class="line" d="M110 236 L140 320"/>
  <path class="line" d="M140 368 L140 400"/>

  <text x="460" y="500" text-anchor="middle" class="muted">c: supabase/migrations  s0o docs/03_database/tables/</text>
</svg>
